<?xml version="1.0" encoding="utf-8"?>

<!DOCTYPE svg PUBLIC "-//W3C//DTD SVG 1.1//EN" "http://www.w3.org/Graphics/SVG/1.1/DTD/svg11.dtd">
<!-- Uploaded to: SVG Repo, www.svgrepo.com, Generator: SVG Repo Mixer Tools -->
<svg height="800px" width="800px" version="1.1" id="_x32_" xmlns="http://www.w3.org/2000/svg" xmlns:xlink="http://www.w3.org/1999/xlink" 
	 viewBox="0 0 512 512"  xml:space="preserve">
<style type="text/css">
	.st0{fill:#000000;}
</style>
<g>
	<path class="st0" d="M108.303,151.078c15.132,21.096,36.72,35.172,56.347,36.762l0.823,0.075l36.85-26.438l0.196-0.801
		c4.774-19.103-1.646-44.071-16.773-65.155c-14.357-20.004-31.076-33.728-47.253-47.01c-11.037-9.056-22.458-18.434-33.117-29.78
		C96.553,9.334,93.583,4.692,93.574,4.68L90.713,0l-2.4,2.826C77.173,15.981,72.721,39.694,76.076,67.873
		C79.592,97.464,91.048,127.024,108.303,151.078z M116.517,116.056c12.018,13.598,17.63,4.692,10.4-9.17
		c-9.079-17.388,0.098-18.012,5.682-12.601c5.566,5.392,12.541,17.476,18.548,14.014c3.611-2.081-0.268-9.568-5.38-20.913
		c-2.932-6.496-0.4-16.24,14.701-3.236c5.515,5.544,10.747,11.523,15.618,18.309c10.564,14.707,15.565,32.428,13.121,46.329
		l-31.55,22.642c-13.963-2.132-29.12-12.551-39.697-27.284c-4.049-5.651-7.761-11.768-11.078-18.201
		c-0.356-0.921-0.763-1.904-1.236-2.946C100.379,111.402,104.5,102.472,116.517,116.056z"/>
	<path class="st0" d="M179.632,215.898c0.511,8.306,4.156,17.363,10.078,25.05l26.851,34.813l52.614-37.746l-24.376-36.579
		c-5.38-8.085-12.793-14.43-20.5-17.576c-7.707-3.147-15.038-2.794-20.267,0.952l-16.994,12.197
		C181.805,200.756,179.13,207.598,179.632,215.898z"/>
	<path class="st0" d="M277.84,251.026l-51.722,37.103l160.228,207.73c11.109,14.411,27.51,20.182,37.323,13.156l0.116-0.101
		c9.807-7.032,9.586-24.42-0.501-39.562L277.84,251.026z"/>
	<path class="st0" d="M212.647,302.413l-38.279-49.634c-8.328-10.81-13.323-23.48-14.073-35.689
		c-0.214-3.557-0.038-6.988,0.457-10.28c-20.506-2.321-41.472-14.152-58.391-32.555c-30.877,41.308-44.976,90.558-34.693,137.297
		c19.973,90.772,124.179,137.619,232.762,104.647l-87.77-113.792L212.647,302.413z M113.191,229.792
		c4.276-12.866,18.163-19.829,31.022-15.565c12.866,4.276,19.835,18.163,15.565,31.029c-4.276,12.866-18.17,19.828-31.023,15.564
		C115.89,256.532,108.921,242.644,113.191,229.792z M160.125,342.619c-8.829,9.321-23.549,9.737-32.871,0.908
		c-9.328-8.83-9.731-23.536-0.902-32.858c8.823-9.334,23.536-9.738,32.864-0.908C168.539,318.577,168.949,333.297,160.125,342.619z"
		/>
	<path class="st0" d="M438.63,142.04c-38.711-57.984-124.224-80.801-210.512-54.591c-6.83,2.075-13.509,4.415-20.033,7.007
		c13.181,22.635,18.173,47.433,13.642,68.611c3.295,0.586,6.606,1.514,9.898,2.857c11.349,4.636,21.755,13.434,29.304,24.779
		l34.747,52.144h-0.003l87.029,130.644c12.503-9.763,23.909-20.478,33.861-32.032c11.617-13.484,15.641-55.196-38.181-53.039
		c-57.391,2.296-65.338-67.999-6.458-73.196C445.119,208.765,460.186,174.318,438.63,142.04z M281.921,162.902
		c-14.884,1.741-28.342-8.93-30.07-23.802c-1.734-14.884,8.924-28.342,23.808-30.07c14.878-1.728,28.342,8.931,30.07,23.802
		C307.463,147.716,296.798,161.175,281.921,162.902z M393.474,176.714c-5.298,5.285-12.608,8.325-20.093,8.325
		c-7.486,0-14.802-3.04-20.094-8.325c-5.291-5.298-8.324-12.613-8.324-20.093c0-7.493,3.033-14.808,8.324-20.106
		c5.292-5.285,12.608-8.312,20.094-8.312c7.486,0,14.796,3.027,20.093,8.312c5.291,5.298,8.324,12.613,8.324,20.106
		C401.798,164.101,398.765,171.416,393.474,176.714z"/>
</g>
</svg>